<?xml version="1.0" standalone="no"?>
<!DOCTYPE svg PUBLIC "-//W3C//DTD SVG 20010904//EN"
 "http://www.w3.org/TR/2001/REC-SVG-20010904/DTD/svg10.dtd">
<svg version="1.0" xmlns="http://www.w3.org/2000/svg"
 width="1576.000000pt" height="1576.000000pt" viewBox="0 0 1576.000000 1576.000000"
 preserveAspectRatio="xMidYMid meet">
<metadata>
Created by potrace 1.14, written by Peter Selinger 2001-2017
</metadata>
<g transform="translate(0.000000,1576.000000) scale(0.100000,-0.100000)"
fill="#000000" stroke="none">
<path d="M270 12661 l0 -3100 1678 3 c922 2 1697 6 1722 9 25 3 97 8 160 12
63 4 129 8 145 10 17 2 59 7 95 10 36 3 81 8 100 10 210 26 478 69 600 96 25
6 56 13 70 15 164 31 597 162 725 220 17 7 54 22 84 34 125 48 329 155 525
275 250 153 534 417 717 665 223 303 398 699 475 1075 32 158 61 364 71 518
13 199 8 601 -11 742 -2 17 -7 57 -11 90 -4 32 -8 67 -10 76 -2 9 -6 32 -9 50
-3 19 -8 45 -11 59 -2 14 -10 50 -16 80 -84 421 -293 835 -568 1125 -314 332
-736 578 -1276 745 -94 29 -381 104 -435 114 -14 2 -36 7 -50 10 -29 7 -35 8
-230 41 -80 13 -165 27 -190 30 -25 3 -56 8 -70 10 -14 3 -50 7 -81 10 -31 2
-72 7 -90 10 -19 2 -63 7 -99 10 -36 3 -90 7 -120 10 -145 11 -220 17 -280 22
-36 3 -863 7 -1837 10 l-1773 4 0 -3100z"/>
<path d="M13676 15744 c-37 -7 -80 -15 -95 -17 -14 -3 -100 -21 -191 -42 -332
-74 -719 -198 -990 -317 -25 -11 -61 -27 -80 -35 -138 -60 -375 -186 -520
-276 -686 -427 -1136 -1006 -1295 -1667 -48 -202 -58 -309 -71 -770 -3 -118
-7 -231 -8 -250 -2 -19 -7 -75 -11 -125 -13 -151 -22 -239 -30 -295 -3 -14 -7
-43 -10 -65 -3 -22 -8 -51 -10 -65 -2 -14 -7 -43 -10 -65 -3 -23 -7 -50 -9
-60 -43 -216 -63 -306 -97 -435 -54 -206 -155 -511 -219 -655 -4 -11 -19 -45
-32 -75 -39 -95 -173 -361 -228 -455 -29 -49 -60 -103 -70 -120 -9 -16 -29
-48 -44 -70 -14 -22 -31 -47 -36 -55 -5 -8 -44 -63 -85 -123 -255 -363 -587
-708 -954 -995 -103 -80 -322 -237 -388 -277 -231 -142 -385 -228 -568 -320
-121 -60 -234 -115 -250 -122 -17 -7 -57 -24 -90 -39 -167 -74 -637 -245 -780
-283 -73 -20 -73 -18 -1 -137 37 -60 73 -118 79 -129 7 -11 26 -42 43 -70 17
-27 56 -90 86 -140 30 -49 122 -199 204 -333 82 -133 156 -255 165 -270 9 -15
110 -180 224 -367 115 -187 250 -407 300 -490 98 -160 270 -440 295 -480 8
-13 33 -54 56 -92 91 -152 457 -750 475 -775 10 -15 19 -29 19 -32 0 -3 33
-58 74 -123 40 -65 141 -228 223 -363 83 -135 191 -312 242 -395 51 -82 97
-157 102 -165 100 -163 246 -403 261 -430 11 -19 33 -54 49 -78 16 -24 29 -45
29 -46 0 -2 26 -46 59 -97 32 -52 68 -110 78 -129 11 -19 51 -84 88 -145 37
-60 221 -360 408 -665 187 -305 354 -577 371 -605 18 -27 35 -57 39 -65 4 -8
15 -27 25 -42 33 -54 201 -326 400 -653 111 -181 210 -334 220 -340 12 -7 755
-9 2183 -8 1190 1 2172 2 2182 2 16 1 17 383 17 7876 l0 7875 -877 -1 c-698
-1 -892 -4 -947 -15z"/>
<path d="M308 7282 l-38 -3 0 -3639 0 -3638 3715 1 c3018 2 3714 4 3710 15 -2
7 -138 236 -301 510 -164 273 -394 659 -512 857 -118 198 -232 388 -253 423
-22 35 -39 65 -39 68 0 3 -9 17 -19 32 -10 15 -139 230 -287 477 -417 703
-421 709 -541 908 -62 103 -113 192 -113 197 0 6 -4 10 -10 10 -5 0 -10 4 -10
10 0 5 -32 62 -72 127 -39 65 -76 127 -82 138 -11 19 -450 755 -572 958 -32
54 -67 113 -78 130 -10 18 -125 210 -255 427 -129 217 -241 404 -247 415 -6
11 -72 121 -146 245 -114 190 -317 530 -717 1202 -74 124 -77 128 -111 128
-143 3 -2993 4 -3022 2z"/>
</g>
</svg>
